<?xml version="1.0" encoding="UTF-8"?>
<!DOCTYPE svg PUBLIC "-//W3C//DTD SVG 1.1//EN" "http://www.w3.org/Graphics/SVG/1.1/DTD/svg11.dtd">
<svg version="1.1" xmlns="http://www.w3.org/2000/svg" xmlns:xlink="http://www.w3.org/1999/xlink" x="0" y="0" width="24" height="24" viewBox="0, 0, 24, 24">
  <g id="Layer_1">
    <g/>
    <g>
      <path d="M18,13 C18,16.31 15.31,19 12,19 C8.69,19 6,16.31 6,13 C6,9.69 8.69,7 12,7 L12,11 L17,6 L12,1 L12,5 C7.58,5 4,8.58 4,13 C4,17.42 7.58,21 12,21 C16.42,21 20,17.42 20,13 L18,13 z" fill="#000000"/>
      <path d="M12.93,15.95 L12.93,11.68 L12.84,11.68 L11.07,12.31 L11.07,13 L12.08,12.69 L12.08,15.95 z" fill="#000000"/>
    </g>
  </g>
</svg>
